# xmcd
#
# Track frame offsets: 
#        150
#        18442
#        37077
#        58751
#        82901
#        106068
#        122157
#        135417
#        157239
#        175521
#        194150
#        219694
#        243856
#        266471
#        285124
#        300726
#        324296
#
# Disc length: 4690 seconds
#
# Revision: 1
# Processed by: cddbd v1.5.2PL0 Copyright (c) Steve Scherf et al.
# Submitted via: ExactAudioCopy v1.3
#
DISCID=e6125011
DTITLE=Various Artist - It's A Blues Thing [CD2)
DYEAR=2012
DGENRE=Blues
TTITLE0=Billy Thorpe and The Aztecs - Good Mornin' Lil' Schoolgirl 
TTITLE1=Edgar Winter - Tobacco Road 
TTITLE2=Taj Mahal - Leaving Trunk 
TTITLE3=The Allman Brothers Band - Whipping Post
TTITLE4=Lynyrd Skynyrd - Call Me The Breeze
TTITLE5=David Lindley - Mercury Blues 
TTITLE6=Gary Moore - Walking By Myself 
TTITLE7=George Thorogood and The Destroyers - Bad To The Bone 
TTITLE8=Dave Hole - Working Overtime 
TTITLE9=Robben Ford - Talk To Your Daughter 
TTITLE10=The Jeff Healey Band - Blue Jean Blues 
TTITLE11=Stevie Ray Vaughan and Double Trouble - Texas Flood
TTITLE12=The Derek Trucks Band - Down In The Flood 
TTITLE13=Keb' Mo' - Come On In My Kitchen 
TTITLE14=Rose Carle - That Season Again
TTITLE15=Glenn Cardier and The Sideshow - Angelica 
TTITLE16=Willie Dixon - Back Door Man
EXTD=
EXTT0=
EXTT1=
EXTT2=
EXTT3=
EXTT4=
EXTT5=
EXTT6=
EXTT7=
EXTT8=
EXTT9=
EXTT10=
EXTT11=
EXTT12=
EXTT13=
EXTT14=
EXTT15=
EXTT16=
PLAYORDER=
